<?xml version="1.0" encoding="utf-8"?>
<!-- Generator: Adobe Illustrator 16.0.4, SVG Export Plug-In . SVG Version: 6.00 Build 0)  -->
<!DOCTYPE svg PUBLIC "-//W3C//DTD SVG 1.1//EN" "http://www.w3.org/Graphics/SVG/1.1/DTD/svg11.dtd">
<svg version="1.1" id="Layer_1" xmlns="http://www.w3.org/2000/svg" xmlns:xlink="http://www.w3.org/1999/xlink" x="0px" y="0px"
	 width="300px" height="42.176px" viewBox="-50 -6.584 300 42.176" enable-background="new -50 -6.584 300 42.176"
	 xml:space="preserve">
<g>
	<g>
		<polygon fill="#5A5B5C" points="-28.368,20.184 -24.857,14.105 -28.368,8.03 -35.38,8.036 -38.888,14.105 -35.38,20.184 		"/>
	</g>
	<g>
		<polygon fill="#2E517C" points="-22.942,14.952 -26.596,21.291 -22.999,27.527 -13.719,18.247 -15.623,14.952 		"/>
	</g>
	<g>
		<polygon fill="#2E517C" points="-25.399,29.93 -24.556,28.47 -28.218,22.132 -35.532,22.132 -39.191,28.464 -38.347,29.93 
			-33.469,34.809 -30.276,34.809 		"/>
	</g>
	<g>
		<polygon fill="#2E517C" points="-40.766,14.952 -48.081,14.952 -50,18.275 -40.726,27.55 -37.104,21.291 		"/>
	</g>
	<g>
		<polygon fill="#4596D2" points="-22.942,13.221 -15.618,13.221 -13.736,9.955 -23.015,0.674 -26.6,6.888 		"/>
	</g>
	<g>
		<polygon fill="#4596D2" points="-38.347,-1.706 -39.188,-0.252 -35.532,6.087 -28.218,6.087 -24.556,-0.247 -25.395,-1.706 
			-30.274,-6.584 -33.471,-6.584 		"/>
	</g>
	<g>
		<polygon fill="#4596D2" points="-48.081,13.221 -40.766,13.221 -37.109,6.888 -40.705,0.652 -49.982,9.925 		"/>
	</g>
	<path fill="#5A5B5C" d="M16.52,22.41L6.652,6.996L-3.377,22.41h-4.023L5.32,3.277h2.638L20.599,22.41H16.52L16.52,22.41z"/>
	<path fill="#5A5B5C" d="M27.457,22.41c-1.089,0-2.01-0.114-2.773-0.341c-0.761-0.228-1.382-0.546-1.862-0.949
		c-0.481-0.408-0.828-0.896-1.048-1.453c-0.217-0.562-0.325-1.188-0.325-1.88V7.894c0-0.67,0.108-1.291,0.325-1.864
		c0.22-0.568,0.569-1.056,1.048-1.465c0.48-0.409,1.099-0.727,1.862-0.948c0.763-0.227,1.685-0.34,2.773-0.34h15.411v2.822H27.457
		c-1.595,0-2.393,0.59-2.393,1.772v9.944c0,1.176,0.796,1.766,2.393,1.766h15.411v2.829H27.457L27.457,22.41z"/>
	<path fill="#5A5B5C" d="M52.669,22.41c-1.085,0-2.009-0.114-2.772-0.341c-0.761-0.228-1.382-0.546-1.863-0.949
		c-0.478-0.408-0.827-0.896-1.045-1.453c-0.216-0.562-0.324-1.188-0.324-1.88V7.894c0-0.67,0.108-1.291,0.324-1.864
		c0.218-0.568,0.567-1.056,1.045-1.465c0.481-0.409,1.102-0.727,1.863-0.948c0.762-0.227,1.687-0.34,2.772-0.34h15.414v2.822H52.669
		c-1.591,0-2.391,0.59-2.391,1.772v9.944c0,1.176,0.8,1.766,2.391,1.766h15.414v2.829H52.669L52.669,22.41z"/>
	<path fill="#5A5B5C" d="M72.469,22.41V3.275h19.681v2.822H76.084v4.788h15.25v2.821h-15.25v5.872h16.065v2.829H72.469V22.41z"/>
	<path fill="#5A5B5C" d="M96.947,22.41V3.275h3.615v16.306h15.523v2.829H96.947z"/>
	<path fill="#5A5B5C" d="M120.199,22.41V3.275h19.68v2.822h-16.067v4.788h15.25v2.821h-15.25v5.872h16.067v2.829h-19.68V22.41z"/>
	<path fill="#5A5B5C" d="M163.619,22.41l-4.486-8.538h-10.084v8.538h-3.618V3.275h16.261c1.082,0,2.011,0.113,2.769,0.34
		c0.761,0.221,1.38,0.539,1.863,0.948c0.479,0.409,0.826,0.897,1.045,1.465c0.219,0.574,0.326,1.192,0.326,1.862V9.25
		c0,1.232-0.357,2.268-1.085,3.09c-0.727,0.822-1.939,1.316-3.646,1.478l4.515,8.593H163.619z M164.08,7.87
		c0-1.181-0.799-1.772-2.392-1.772h-12.64v4.945h12.64c1.593,0,2.392-0.583,2.392-1.767V7.87L164.08,7.87z"/>
	<path fill="#5A5B5C" d="M192.5,22.41l-9.865-15.414l-10.03,15.414h-4.026l12.719-19.133h2.639l12.637,19.133H192.5L192.5,22.41z"/>
	<path fill="#5A5B5C" d="M203.709,22.41V6.099h-10.027V3.275h23.408v2.822h-9.764V22.41H203.709z"/>
	<path fill="#5A5B5C" d="M221.107,22.41V3.275h19.686v2.822h-16.07v4.788h15.253v2.821h-15.253v5.872h16.07v2.829h-19.686V22.41z"/>
	<path fill="#4596D2" d="M82.186,33.496c0.315-0.613,0.48-1.323,0.48-2.102c0-1.317-0.394-2.3-1.211-3.016
		c-0.818-0.71-2.014-1.062-3.566-1.062H72.47v8.274h4.882c0.87,0,1.595-0.057,2.16-0.159c0.533-0.102,0.987-0.267,1.336-0.482
		C81.431,34.593,81.868,34.121,82.186,33.496z M76.909,34.569h-3.024v-6.321h4.022c1.046,0,1.865,0.268,2.427,0.796
		c0.558,0.539,0.85,1.317,0.85,2.322c0,1.131-0.351,1.96-1.034,2.471C79.484,34.331,78.426,34.569,76.909,34.569z"/>
	<rect x="90.611" y="27.317" fill="#4596D2" width="1.412" height="8.271"/>
	<path fill="#4596D2" d="M107.662,33.633l1.07,1.959h1.562l-4.739-8.274h-1.619l-4.686,8.274h1.303l1.043-1.959H107.662z
		 M104.677,28.016l2.474,4.669h-5.029L104.677,28.016z"/>
	<path fill="#4596D2" d="M126.983,31.065h-4.754v0.852h3.399v2.652h-7.162v-6.321h7.162v0.932l1.354-0.238
		c-0.006-0.625-0.128-1.062-0.36-1.278c-0.168-0.159-0.568-0.346-1.522-0.346h-6.165c-0.966,0-1.366,0.187-1.527,0.352
		c-0.233,0.228-0.353,0.722-0.353,1.426v4.714c0,0.897,0.19,1.272,0.353,1.432c0.161,0.161,0.56,0.349,1.527,0.349h6.165
		c0.972,0,1.363-0.188,1.531-0.349c0.161-0.159,0.352-0.534,0.352-1.432V31.065z"/>
	<path fill="#4596D2" d="M137.914,30.151l6.469,5.44h0.963v-8.274h-1.201v4.355c0,0.114,0.006,0.268,0.017,0.472
		c0.012,0.199,0.037,0.557,0.062,1.057l0.074,1.027l-0.656-0.795c-0.125-0.153-0.27-0.301-0.42-0.442
		c-0.156-0.153-0.344-0.312-0.546-0.483l-6.21-5.19H135.5v8.274h1.201v-4.498c0-0.176-0.009-0.386-0.017-0.625
		c-0.018-0.232-0.031-0.494-0.062-0.761l-0.105-1.057l0.688,0.801c0.097,0.114,0.196,0.222,0.304,0.324
		C137.624,29.89,137.761,30.015,137.914,30.151z"/>
	<path fill="#4596D2" d="M164.199,29.095c0-0.704-0.119-1.198-0.361-1.426c-0.159-0.165-0.557-0.352-1.521-0.352h-6.58
		c-0.966,0-1.36,0.187-1.53,0.352c-0.228,0.228-0.355,0.722-0.355,1.426v4.714c0,0.897,0.193,1.272,0.355,1.432
		c0.161,0.161,0.564,0.349,1.53,0.349h6.577c0.971,0,1.363-0.188,1.524-0.349c0.168-0.159,0.361-0.534,0.361-1.432V29.095
		L164.199,29.095z M162.796,34.569h-7.531v-6.321h7.531V34.569z"/>
	<path fill="#4596D2" d="M181.749,32.582c0-0.886-0.193-1.267-0.355-1.432c-0.167-0.159-0.576-0.352-1.551-0.352h-5.897v-2.582
		h6.514v0.926l1.173-0.275c-0.017-0.582-0.139-0.993-0.369-1.209c-0.173-0.151-0.579-0.339-1.516-0.339h-5.075
		c-0.966,0-1.363,0.188-1.53,0.353c-0.23,0.225-0.353,0.722-0.353,1.423v0.997c0,0.701,0.122,1.195,0.353,1.422
		c0.167,0.159,0.564,0.353,1.53,0.353h5.907v2.703h-6.986v-0.977l-1.167,0.238c0,0.699,0.122,1.176,0.36,1.403
		c0.159,0.165,0.568,0.357,1.539,0.357h5.518c0.975,0,1.384-0.192,1.548-0.357c0.165-0.159,0.358-0.54,0.358-1.426V32.582
		L181.749,32.582z"/>
	<polygon fill="#4596D2" points="197.813,27.317 188.175,27.317 188.175,28.248 192.278,28.248 192.278,35.592 193.695,35.592 
		193.695,28.248 197.813,28.248 	"/>
	<rect x="204.486" y="27.317" fill="#4596D2" width="1.415" height="8.271"/>
	<path fill="#4596D2" d="M223.519,33.025l-1.414-0.296v1.84h-6.275v-6.321h6.275v1.636l1.414-0.227v-0.562
		c0-0.886-0.195-1.267-0.357-1.426c-0.168-0.165-0.573-0.352-1.528-0.352h-5.338c-0.966,0-1.36,0.187-1.525,0.352
		c-0.235,0.228-0.36,0.722-0.36,1.426v4.714c0,0.897,0.192,1.272,0.36,1.432c0.162,0.161,0.56,0.349,1.525,0.349h5.338
		c0.963,0,1.36-0.192,1.528-0.349c0.162-0.159,0.357-0.534,0.357-1.432V33.025z"/>
	<path fill="#4596D2" d="M240.668,32.582c0-0.886-0.19-1.267-0.354-1.432c-0.165-0.159-0.574-0.352-1.542-0.352h-5.907v-2.582h6.518
		v0.926l1.164-0.275c-0.006-0.582-0.128-0.993-0.36-1.209c-0.176-0.151-0.582-0.339-1.517-0.339h-5.077
		c-0.963,0-1.357,0.188-1.528,0.353c-0.229,0.225-0.354,0.722-0.354,1.423v0.997c0,0.701,0.125,1.195,0.354,1.422
		c0.171,0.159,0.565,0.353,1.528,0.353h5.912v2.703h-6.991v-0.977l-1.167,0.238c0,0.699,0.122,1.176,0.36,1.403
		c0.165,0.165,0.567,0.357,1.542,0.357h5.523c0.968,0,1.374-0.192,1.542-0.357c0.164-0.159,0.354-0.54,0.354-1.426V32.582z"/>
	<g>
		<path fill="#4298D6" d="M244.581,30.89v-3.039H243.5v-0.377h2.592v0.377h-1.087v3.039H244.581z"/>
		<path fill="#4298D6" d="M249.574,30.89v-2.814l-1.162,2.814h-0.173l-1.159-2.814v2.814h-0.426v-3.416h0.61l1.062,2.569
			l1.062-2.569H250v3.416H249.574z"/>
	</g>
</g>
</svg>
